<?xml version="1.0" encoding="utf-8"?>
<!-- Generator: Adobe Illustrator 24.0.2, SVG Export Plug-In . SVG Version: 6.00 Build 0)  -->
<svg version="1.1" id="Layer_1" xmlns="http://www.w3.org/2000/svg" xmlns:xlink="http://www.w3.org/1999/xlink" x="0px" y="0px"
	 viewBox="0 0 22 20" style="enable-background:new 0 0 22 20;" xml:space="preserve">
<path d="M20,7h-6.3l1-4.6V2.1c0-0.4-0.2-0.8-0.4-1.1l-1.1-1L6.6,6.6C6.2,6.9,6,7.4,6,8v10c0,1.1,0.9,2,2,2h9c0.8,0,1.5-0.5,1.8-1.2
	l3-7.1c0.1-0.2,0.1-0.5,0.1-0.7V9H22C22,7.9,21.1,7,20,7z"/>
<path d="M17,18H8V8l0,0l4.4-4.4l-0.6,2.9L11.2,9h2.5h6.2v2c0,0,0,0,0,0.1L17,18z"/>
</svg>
